<svg width="72" height="19" viewBox="0 0 72 19" fill="none" xmlns="http://www.w3.org/2000/svg">
  <path d="M15.9125 18H12.5525L11.4365 14.4H4.93247L3.84047 18H0.480469L5.76047 0.719971H10.6325L15.9125 18ZM8.16047 3.77997L5.85647 11.352H10.5005L8.16047 3.77997Z" fill="#2C3038"/>
  <path d="M26.1753 0.719971H29.4633V18H26.5833V17.256C25.6153 17.992 24.4473 18.36 23.0793 18.36C21.9113 18.36 20.8713 18.064 19.9593 17.472C19.0553 16.872 18.3513 16.052 17.8473 15.012C17.3513 13.972 17.1033 12.808 17.1033 11.52C17.1033 10.208 17.3553 9.03197 17.8593 7.99197C18.3713 6.95197 19.0913 6.13997 20.0193 5.55597C20.9553 4.97197 22.0313 4.67997 23.2473 4.67997C24.3593 4.67997 25.3353 4.94397 26.1753 5.47197V0.719971ZM23.6073 15.456C25.5913 15.456 26.5833 14.144 26.5833 11.52C26.5833 10.288 26.3513 9.32397 25.8873 8.62797C25.4313 7.93197 24.7113 7.58397 23.7273 7.58397C23.0233 7.58397 22.4353 7.75997 21.9633 8.11197C21.4913 8.45597 21.1393 8.92397 20.9073 9.51597C20.6753 10.108 20.5593 10.776 20.5593 11.52C20.5593 12.68 20.8153 13.628 21.3273 14.364C21.8393 15.092 22.5993 15.456 23.6073 15.456Z" fill="#2C3038"/>
  <path d="M35.3793 12.432C35.4993 13.36 35.8153 14.072 36.3273 14.568C36.8473 15.064 37.5433 15.312 38.4153 15.312C39.0473 15.312 39.5913 15.172 40.0473 14.892C40.5113 14.612 40.8633 14.208 41.1033 13.68L44.3673 14.616C44.0473 15.392 43.5953 16.064 43.0113 16.632C42.4273 17.192 41.7553 17.62 40.9953 17.916C40.2353 18.212 39.4393 18.36 38.6073 18.36C37.2953 18.36 36.1273 18.076 35.1033 17.508C34.0873 16.94 33.2913 16.148 32.7153 15.132C32.1473 14.116 31.8633 12.968 31.8633 11.688C31.8633 10.296 32.1393 9.07197 32.6913 8.01597C33.2513 6.95197 34.0273 6.13197 35.0193 5.55597C36.0113 4.97197 37.1433 4.67997 38.4153 4.67997C39.6633 4.67997 40.7473 4.95597 41.6673 5.50797C42.5873 6.05997 43.2913 6.84397 43.7793 7.85997C44.2753 8.87597 44.5233 10.068 44.5233 11.436C44.5233 11.652 44.5073 11.984 44.4753 12.432H35.3793ZM38.5593 7.51197C36.8393 7.51197 35.8073 8.34397 35.4633 10.008H41.1753C41.0633 9.13597 40.7953 8.50397 40.3713 8.11197C39.9553 7.71197 39.3513 7.51197 38.5593 7.51197Z" fill="#2C3038"/>
  <path d="M52.0088 18.36C50.3768 18.36 49.0568 17.992 48.0488 17.256C47.0488 16.52 46.4408 15.472 46.2248 14.112L49.5608 13.608C49.6968 14.224 49.9968 14.704 50.4608 15.048C50.9328 15.384 51.5288 15.552 52.2488 15.552C52.8328 15.552 53.2848 15.44 53.6048 15.216C53.9328 14.984 54.0968 14.664 54.0968 14.256C54.0968 13.984 54.0288 13.776 53.8928 13.632C53.7648 13.48 53.4928 13.332 53.0768 13.188C52.6688 13.044 51.9688 12.84 50.9768 12.576C49.9048 12.304 49.0568 12 48.4328 11.664C47.8088 11.328 47.3568 10.928 47.0768 10.464C46.7968 9.99997 46.6568 9.43197 46.6568 8.75997C46.6568 7.93597 46.8688 7.21597 47.2928 6.59997C47.7168 5.98397 48.3168 5.51197 49.0928 5.18397C49.8688 4.84797 50.7768 4.67997 51.8168 4.67997C52.8248 4.67997 53.7208 4.83597 54.5048 5.14797C55.2968 5.45997 55.9328 5.90797 56.4128 6.49197C56.9008 7.06797 57.2008 7.74397 57.3128 8.51997L53.9768 9.11997C53.9208 8.63997 53.7128 8.25997 53.3528 7.97997C52.9928 7.69997 52.5048 7.53597 51.8888 7.48797L51.6368 7.47597C51.1088 7.47597 50.6848 7.57597 50.3648 7.77597C50.0528 7.97597 49.8968 8.24797 49.8968 8.59197C49.8968 8.82397 49.9768 9.01597 50.1368 9.16797C50.2968 9.31197 50.6088 9.46397 51.0728 9.62397C51.5368 9.77597 52.2968 9.98397 53.3528 10.248C54.3448 10.504 55.1368 10.804 55.7288 11.148C56.3208 11.484 56.7528 11.888 57.0248 12.36C57.2968 12.832 57.4328 13.408 57.4328 14.088C57.4328 14.968 57.2168 15.732 56.7848 16.38C56.3528 17.02 55.7288 17.512 54.9128 17.856C54.0968 18.192 53.1288 18.36 52.0088 18.36Z" fill="#2C3038"/>
  <path d="M71.7938 18H68.3138L64.1618 12.444L62.9018 13.74V18H59.8058L59.8298 0.719971H62.9018V9.71997L67.5938 5.03997H71.3978L66.1418 10.428L71.7938 18Z" fill="#2C3038"/>
</svg>