<svg width="20" height="20" viewBox="0 0 20 20" fill="none" xmlns="http://www.w3.org/2000/svg">
  <g clip-path="url(#clip0_2_3673)">
    <path d="M17.8108 13.9004C17.3796 14.8582 17.1718 15.2863 16.6171 16.1316C15.8405 17.3129 14.7452 18.7879 13.3921 18.7973C12.1874 18.8082 11.8765 18.0113 10.2405 18.0254C8.60614 18.0332 8.26552 18.8129 7.05927 18.8004C5.70458 18.7879 4.66864 17.4598 3.89208 16.2801C1.72021 12.9723 1.49052 9.09414 2.83271 7.03164C3.78271 5.56914 5.28427 4.70977 6.69521 4.70977C8.13271 4.70977 9.03583 5.49883 10.2233 5.49883C11.3765 5.49883 12.078 4.7082 13.7405 4.7082C14.9968 4.7082 16.3249 5.39258 17.2749 6.57383C14.1686 8.27695 14.6733 12.7129 17.8108 13.9004V13.9004ZM12.478 3.38789C13.0827 2.61133 13.5421 1.51602 13.3749 0.400391C12.389 0.467578 11.2358 1.09727 10.5624 1.91289C9.95146 2.65664 9.44521 3.75977 9.64208 4.82695C10.7186 4.86133 11.8327 4.21914 12.478 3.38789H12.478Z" fill="white"/>
  </g>
  <defs>
    <clipPath id="clip0_2_3673">
      <rect width="20" height="20" fill="white"/>
    </clipPath>
  </defs>
</svg>