<svg width="104" height="10" viewBox="0 0 104 10" fill="none" xmlns="http://www.w3.org/2000/svg">
  <path d="M4.18019 2.92613H0V0.477539H11.3643V2.907H7.20426V9.60236H4.17514L4.18019 2.92613Z" fill="white"/>
  <path d="M22.995 0.477539V9.5641H20.0668V4.30346L15.0183 9.59758H12.4385V0.477539H15.3666V5.79079L20.4101 0.477539H22.995Z" fill="white"/>
  <path d="M28.0395 9.59758H25.1113V0.477539H28.0395V3.82522H32.7447V0.477539H35.6729V9.5641H32.7447V6.21642H28.0395V9.59758Z" fill="white"/>
  <path d="M37.7881 9.59758V0.477539H40.7162V2.92613H43.7454C44.4687 2.89061 45.1931 2.97476 45.8859 3.17481C46.5478 3.39024 47.118 3.8031 47.5113 4.35148C47.9045 4.89986 48.0994 5.55421 48.0669 6.21642C48.0923 6.93703 47.8554 7.644 47.3957 8.21871C46.9361 8.79342 46.2818 9.20091 45.5426 9.3728C44.9434 9.52383 44.3249 9.59466 43.705 9.58323L37.7881 9.59758ZM40.7162 7.39767H43.2405C43.6299 7.43072 44.0222 7.38508 44.3916 7.26376C44.6073 7.17525 44.791 7.02898 44.9201 6.84292C45.0493 6.65685 45.1183 6.4391 45.1186 6.21642C45.1235 5.99442 45.0509 5.77709 44.9122 5.59811C44.7734 5.41914 44.5763 5.2885 44.3512 5.22646C43.9844 5.12463 43.6017 5.08417 43.2203 5.1069H40.696L40.7162 7.39767Z" fill="white"/>
  <path d="M52.3432 9.59758H49.415V0.477539H52.3432V3.92087H53.1459L56.6799 0.496669H60.3552L55.6702 4.85344L60.537 9.59758H56.6395L53.1459 6.15425H52.3432V9.59758Z" fill="white"/>
  <path d="M72.9159 5.0649C72.9159 7.7813 70.5532 9.88556 66.6355 9.88556C62.7179 9.88556 60.335 7.7813 60.335 5.0649C60.335 2.3485 62.6977 0.249023 66.6406 0.249023C70.5835 0.249023 72.9159 2.35328 72.9159 5.0649ZM69.8464 5.0649C69.8464 3.57757 68.5742 2.48719 66.6355 2.48719C64.6969 2.48719 63.4247 3.57757 63.4247 5.0649C63.4247 6.55223 64.6767 7.65218 66.6406 7.65218C68.6045 7.65218 69.8464 6.55701 69.8464 5.0649Z" fill="white"/>
  <path d="M88.4651 5.04543C88.4651 7.64706 86.264 9.00526 82.5684 9.08178V10H79.6403V9.08656C75.965 9.01004 73.7638 7.65184 73.7638 5.05021C73.7638 2.44859 75.965 0.980392 79.6403 0.903873V0H82.5684V0.918221C86.264 0.95648 88.4651 2.44859 88.4651 5.04543ZM79.6403 2.86944C77.6209 2.94596 76.7323 3.82592 76.7323 5.04543C76.7323 6.26494 77.6209 7.05404 79.6403 7.13056V2.86944ZM85.4764 5.04543C85.4764 3.82592 84.6081 2.94596 82.5684 2.86944V7.13056C84.6081 7.05404 85.4764 6.26973 85.4764 5.04543Z" fill="white"/>
  <path d="M104 5.04543C104 7.64706 101.799 9.00526 98.1033 9.08178V10H95.1751V9.08656C91.4998 9.01004 89.2986 7.65184 89.2986 5.05021C89.2986 2.44859 91.4998 0.980392 95.1751 0.903873V0H98.1033V0.918221C101.814 0.95648 104 2.44859 104 5.04543ZM95.1903 2.86944C93.1709 2.94596 92.2823 3.82592 92.2823 5.04543C92.2823 6.26494 93.1709 7.05404 95.1903 7.13056V2.86944ZM101.026 5.04543C101.026 3.82592 100.158 2.94596 98.1184 2.86944V7.13056C100.158 7.05404 101.026 6.26973 101.026 5.04543Z" fill="white"/>
</svg>