<svg width="22" height="22" viewBox="0 0 22 22" fill="none" xmlns="http://www.w3.org/2000/svg">
  <g clip-path="url(#clip0_2_4125)">
    <path fill-rule="evenodd" clip-rule="evenodd" d="M1.54648 1.54648C0 3.09295 0 5.58195 0 10.56V11.44C0 16.4181 0 18.907 1.54648 20.4535C3.09295 22 5.58195 22 10.56 22H11.44C16.4181 22 18.907 22 20.4535 20.4535C22 18.907 22 16.4181 22 11.44V10.56C22 5.58195 22 3.09295 20.4535 1.54648C18.907 0 16.4181 0 11.44 0H10.56C5.58195 0 3.09295 0 1.54648 1.54648ZM3.71255 6.69171C3.83172 12.4117 6.69171 15.8492 11.7059 15.8492H11.9901V12.5767C13.8326 12.76 15.2258 14.1075 15.785 15.8492H18.3884C17.6734 13.2459 15.7941 11.8067 14.6208 11.2567C15.7941 10.5784 17.4441 8.92838 17.8383 6.69171H15.4732C14.9599 8.50671 13.4384 10.1567 11.9901 10.3125V6.69171H9.625V13.035C8.15833 12.6684 6.30671 10.89 6.22421 6.69171H3.71255Z" fill="white"/>
  </g>
  <defs>
    <clipPath id="clip0_2_4125">
      <rect width="22" height="22" fill="white"/>
    </clipPath>
  </defs>
</svg>