<svg width="22" height="16" viewBox="0 0 22 16" fill="none" xmlns="http://www.w3.org/2000/svg">
  <path fill-rule="evenodd" clip-rule="evenodd" d="M20.8292 1.39587C21.1705 1.74125 21.4156 2.17071 21.54 2.64126C22 4.37805 22 7.99992 22 7.99992C22 7.99992 22 11.6218 21.54 13.3586C21.4156 13.8291 21.1705 14.2586 20.8292 14.604C20.4878 14.9493 20.0622 15.1985 19.595 15.3266C17.875 15.7916 11 15.7916 11 15.7916C11 15.7916 4.125 15.7916 2.405 15.3266C1.93777 15.1985 1.51219 14.9493 1.17085 14.604C0.829506 14.2586 0.58438 13.8291 0.46 13.3586C0 11.6218 0 7.99992 0 7.99992C0 7.99992 0 4.37805 0.46 2.64126C0.58438 2.17071 0.829506 1.74125 1.17085 1.39587C1.51219 1.05049 1.93777 0.801299 2.405 0.673239C4.125 0.208252 11 0.208252 11 0.208252C11 0.208252 17.875 0.208252 19.595 0.673239C20.0622 0.801299 20.4878 1.05049 20.8292 1.39587ZM14.5 7.99995L8.74996 4.71111V11.2888L14.5 7.99995Z" fill="white"/>
</svg>